<svg width="30" height="40" viewBox="0 0 30 40" fill="none" xmlns="http://www.w3.org/2000/svg">
<path d="M0 4.45458C0 1.99438 1.99289 0 4.45124 0C6.90959 0 8.90247 1.99438 8.90247 4.45458C8.90247 6.91477 6.90959 8.90915 4.45124 8.90915C1.99289 8.90915 0 6.91477 0 4.45458Z" fill="#CD2027"/>
<path d="M0 11.3899C0 10.7227 0.540444 10.1819 1.20712 10.1819H7.69536C8.36203 10.1819 8.90247 10.7227 8.90247 11.3899V17.883C8.90247 18.5502 8.36203 19.091 7.69536 19.091H1.20712C0.540444 19.091 0 18.5502 0 17.883V11.3899Z" fill="#39A048"/>
<path d="M0 21.5718C0 20.9046 0.540444 20.3638 1.20712 20.3638H7.69536C8.36203 20.3638 8.90247 20.9046 8.90247 21.5718V28.0649C8.90247 28.7321 8.36203 29.2729 7.69536 29.2729H1.20712C0.540444 29.2729 0 28.7321 0 28.0649V21.5718Z" fill="#39A048"/>
<path d="M0 31.7537C0 31.0865 0.540444 30.5457 1.20712 30.5457H7.69536C8.36203 30.5457 8.90247 31.0865 8.90247 31.7537V38.2468C8.90247 38.914 8.36203 39.4548 7.69536 39.4548H1.20712C0.540444 39.4548 0 38.914 0 38.2468V31.7537Z" fill="#39A048"/>
<path d="M10.1743 31.7537C10.1743 31.0865 10.7147 30.5457 11.3814 30.5457H17.8696C18.5363 30.5457 19.0767 31.0865 19.0767 31.7537V38.2468C19.0767 38.914 18.5363 39.4548 17.8696 39.4548H11.3814C10.7147 39.4548 10.1743 38.914 10.1743 38.2468V31.7537Z" fill="#39A048"/>
<path d="M10.1743 21.5718C10.1743 20.9046 10.7147 20.3638 11.3814 20.3638H17.8696C18.5363 20.3638 19.0767 20.9046 19.0767 21.5718V28.0649C19.0767 28.7321 18.5363 29.2729 17.8696 29.2729H11.3814C10.7147 29.2729 10.1743 28.7321 10.1743 28.0649V21.5718Z" fill="#39A048"/>
<path d="M10.1743 11.3899C10.1743 10.7227 10.7147 10.1819 11.3814 10.1819H17.8696C18.5363 10.1819 19.0767 10.7227 19.0767 11.3899V17.883C19.0767 18.5502 18.5363 19.091 17.8696 19.091H11.3814C10.7147 19.091 10.1743 18.5502 10.1743 17.883V11.3899Z" fill="#39A048"/>
<path d="M10.1743 1.20802C10.1743 0.540849 10.7147 0 11.3814 0H17.8696C18.5363 0 19.0767 0.540849 19.0767 1.20802V7.70113C19.0767 8.3683 18.5363 8.90915 17.8696 8.90915H11.3814C10.7147 8.90915 10.1743 8.3683 10.1743 7.70113V1.20802Z" fill="#39A048"/>
<path d="M20.3485 1.20802C20.3485 0.540849 20.889 0 21.5556 0H28.0439C28.7105 0 29.251 0.540849 29.251 1.20802V7.70113C29.251 8.3683 28.7105 8.90915 28.0439 8.90915H21.5556C20.889 8.90915 20.3485 8.3683 20.3485 7.70113V1.20802Z" fill="#39A048"/>
<path d="M20.3485 21.5718C20.3485 20.9046 20.889 20.3638 21.5556 20.3638H28.0439C28.7105 20.3638 29.251 20.9046 29.251 21.5718V28.0649C29.251 28.7321 28.7105 29.2729 28.0439 29.2729H21.5556C20.889 29.2729 20.3485 28.7321 20.3485 28.0649V21.5718Z" fill="#39A048"/>
</svg>
